<svg width="160" height="160" viewBox="0 0 160 160" fill="none" xmlns="http://www.w3.org/2000/svg">
<g clip-path="url(#clip0_29_33)">
<path d="M160 80.0007C160 124.185 124.183 160.001 80.0005 160.001C35.8178 160.001 0 124.183 0 80.0007C0 35.818 35.8178 0.00128174 80.0005 0.00128174C124.183 0.00128174 160 35.818 160 80.0007Z" fill="#EC8213"/>
<mask id="mask0_29_33" style="mask-type:luminance" maskUnits="userSpaceOnUse" x="0" y="0" width="160" height="161">
<path d="M0 80.0016C0 124.183 35.8167 160.001 79.9995 160.001C124.182 160.001 160 124.183 160 80.0016C160 35.8167 124.182 0 79.9995 0C35.8167 0 0 35.8167 0 80.0016Z" fill="white"/>
</mask>
<g mask="url(#mask0_29_33)">
<path d="M125.435 176.229H32.6776C32.6776 170.991 33.5436 165.946 35.1523 161.252C35.4406 160.403 35.7557 159.564 36.0965 158.733V158.726C36.4287 157.895 36.7963 157.082 37.1811 156.278C38.7105 153.051 40.6171 150.035 42.8292 147.272C43.3887 146.582 43.9567 145.91 44.5419 145.261C44.8312 144.929 45.1367 144.605 45.4432 144.282C45.7486 143.967 46.0552 143.653 46.3702 143.338V143.329C46.7636 142.936 47.1655 142.559 47.5674 142.183C47.9693 141.817 48.3808 141.449 48.7999 141.083C49.1504 140.786 49.5169 140.479 49.8759 140.191V140.181C49.9017 140.164 49.9199 140.147 49.9456 140.129C49.9627 140.112 49.9895 140.094 50.0067 140.076C50.0335 140.059 50.0506 140.042 50.0678 140.024C50.505 139.683 50.9337 139.332 51.3796 139.01C51.5189 138.905 51.6593 138.808 51.7997 138.703C51.939 138.608 52.0794 138.511 52.2188 138.408C52.3677 138.301 52.5156 138.189 52.6732 138.083C52.6818 138.074 52.7 138.066 52.7171 138.058C52.8222 137.987 52.9272 137.908 53.0322 137.848C53.2155 137.717 53.4084 137.585 53.5917 137.48V137.472C53.7578 137.358 53.9153 137.253 54.0815 137.147C54.5445 136.851 55.0075 136.572 55.4801 136.291C55.9517 136.011 56.4329 135.74 56.9141 135.477C56.9312 135.46 56.9484 135.469 56.9484 135.469V135.46C57.2195 135.31 57.4907 135.154 57.7533 134.995C57.8583 134.934 57.9548 134.873 58.0587 134.812C58.2345 134.699 58.4178 134.593 58.601 134.48C58.7854 134.366 58.9601 134.243 59.1348 134.13C59.467 133.912 59.7992 133.684 60.1143 133.438C60.1401 133.429 60.1572 133.413 60.184 133.395C60.2708 133.325 60.3587 133.263 60.4551 133.193C60.7081 133.019 60.9449 132.826 61.1893 132.625H61.1979C61.5826 132.319 61.9502 132.015 62.3168 131.681C62.3436 131.663 62.3789 131.637 62.4047 131.602C62.7637 131.288 63.1216 130.956 63.471 130.614C63.7079 130.378 63.9523 130.143 64.1795 129.897C65.1408 128.891 66.0239 127.818 66.8288 126.679C68.3764 124.52 69.6261 122.142 70.5446 119.607C70.5446 119.597 70.5446 119.597 70.5531 119.588V119.579C71.6635 116.484 72.2669 113.153 72.2669 109.673L79.0167 109.708H79.0521L85.9767 109.744C85.9767 113.18 86.5618 116.475 87.6464 119.535V119.545L87.655 119.554C88.5553 122.098 89.7974 124.486 91.3268 126.644C92.9184 128.899 94.8153 130.911 96.9663 132.633H96.9749C97.036 132.695 97.1067 132.747 97.1678 132.79C97.2375 132.843 97.2986 132.903 97.3682 132.957C97.395 132.974 97.4208 133.001 97.4561 133.018C97.6137 133.14 97.7712 133.262 97.9373 133.384C98.2514 133.622 98.575 133.849 98.9073 134.067C98.9769 134.121 99.038 134.163 99.1088 134.207C99.2041 134.268 99.3006 134.339 99.3971 134.4C99.5192 134.487 99.6414 134.566 99.7732 134.636C99.8686 134.698 99.9651 134.758 100.07 134.819C100.211 134.907 100.35 134.985 100.49 135.073C100.709 135.204 100.936 135.336 101.163 135.458C101.224 135.475 101.268 135.511 101.321 135.535C101.706 135.745 102.09 135.973 102.465 136.191C102.85 136.41 103.218 136.637 103.594 136.873C103.777 136.986 103.952 137.091 104.127 137.215C104.259 137.293 104.389 137.381 104.52 137.476V137.486C104.538 137.494 104.547 137.503 104.555 137.503L104.66 137.573C104.757 137.634 104.844 137.703 104.94 137.766C105.474 138.115 105.998 138.492 106.513 138.876C106.601 138.938 106.698 138.998 106.785 139.068V139.077H106.803C107.239 139.41 107.676 139.742 108.105 140.091L108.175 140.144C108.201 140.162 108.219 140.178 108.237 140.196C108.393 140.32 108.542 140.442 108.691 140.572C109.049 140.87 109.408 141.176 109.758 141.491C110.029 141.727 110.291 141.961 110.553 142.208C110.772 142.4 110.982 142.601 111.183 142.793C111.392 142.995 111.602 143.196 111.804 143.396V143.406C112.328 143.93 112.844 144.463 113.343 145.015C113.841 145.566 114.331 146.124 114.811 146.693C121.447 154.711 125.435 164.993 125.435 176.229Z" fill="#ECC19C"/>
</g>
<mask id="mask1_29_33" style="mask-type:luminance" maskUnits="userSpaceOnUse" x="0" y="0" width="160" height="161">
<path d="M0 80.0016C0 124.183 35.8167 160.001 79.9995 160.001C124.182 160.001 160 124.183 160 80.0016C160 35.8167 124.182 0 79.9995 0C35.8167 0 0 35.8167 0 80.0016Z" fill="white"/>
</mask>
<g mask="url(#mask1_29_33)">
<path d="M125.435 176.229H32.6776C32.6776 170.991 33.5436 165.946 35.1523 161.252C35.4406 160.403 35.7557 159.564 36.0965 158.733V158.726C36.4287 157.895 36.7963 157.082 37.1811 156.278C38.7105 153.051 40.6171 150.035 42.8292 147.272C43.3887 146.582 43.9567 145.91 44.5419 145.261C44.8312 144.929 45.1367 144.605 45.4432 144.282C45.7486 143.967 46.0552 143.653 46.3702 143.338C46.7636 142.944 47.1655 142.559 47.5674 142.183C47.9693 141.817 48.3808 141.449 48.7999 141.083C49.1504 140.786 49.5169 140.479 49.8759 140.191C49.9017 140.173 49.9199 140.147 49.9456 140.129C49.9627 140.112 49.9895 140.094 50.0067 140.076C50.0238 140.059 50.0506 140.05 50.0678 140.032C50.505 139.683 50.9337 139.351 51.3796 139.018C51.5189 138.913 51.6593 138.809 51.7997 138.703C51.939 138.608 52.0794 138.511 52.2188 138.407L52.7171 138.067C53.0054 137.865 53.2937 137.673 53.5917 137.48C53.7578 137.367 53.9153 137.262 54.0815 137.158C54.5445 136.86 55.0075 136.572 55.4801 136.291C55.9517 136.011 56.4329 135.74 56.9141 135.477C56.9312 135.46 56.9484 135.469 56.9484 135.469V135.46C57.2195 135.31 57.4907 135.154 57.7533 134.995C57.8583 134.944 57.9548 134.881 58.0587 134.82C58.2431 134.715 58.4263 134.593 58.601 134.481C58.7854 134.367 58.9601 134.244 59.1348 134.131C59.467 133.913 59.7992 133.685 60.1143 133.439C60.1401 133.43 60.1572 133.414 60.184 133.396C60.2708 133.326 60.3587 133.264 60.4551 133.195C60.5248 133.133 60.603 133.072 60.6824 133.011C60.7692 132.949 60.8485 132.879 60.9353 132.81C61.0232 132.749 61.1014 132.679 61.1807 132.618L61.1893 132.626L61.1979 132.635C63.2792 134.759 65.7271 136.517 68.4461 137.786C70.7193 138.869 73.1939 139.604 75.7908 139.937C75.9483 139.971 76.1144 139.989 76.2806 140.005C76.8925 140.075 77.5131 140.119 78.1422 140.136H78.1508C78.4391 140.156 78.7198 140.163 79.0167 140.163H79.095C79.3843 140.163 79.6641 140.154 79.9438 140.136H79.9524C80.5815 140.128 81.1934 140.084 81.8054 140.015H81.814C81.9897 139.997 82.1559 139.98 82.322 139.944C84.9092 139.621 87.3753 138.887 89.6485 137.82C92.3932 136.544 94.8679 134.777 96.9663 132.645L96.9749 132.635C97.036 132.697 97.1067 132.749 97.1678 132.793C97.2289 132.845 97.2986 132.898 97.3682 132.949C97.395 132.975 97.4293 132.992 97.4561 133.019C97.6137 133.141 97.7712 133.263 97.9373 133.385C98.2514 133.623 98.575 133.858 98.9073 134.078C98.9769 134.13 99.038 134.174 99.1088 134.217L99.3971 134.401C99.5192 134.488 99.6414 134.567 99.7732 134.637C99.8686 134.707 99.9737 134.768 100.07 134.83C100.211 134.917 100.35 134.995 100.49 135.074C100.709 135.205 100.936 135.337 101.163 135.459C101.224 135.476 101.268 135.512 101.321 135.536C101.706 135.746 102.09 135.974 102.465 136.192C102.85 136.419 103.218 136.647 103.594 136.885C103.777 136.989 103.952 137.102 104.127 137.217C104.259 137.304 104.389 137.391 104.52 137.488C104.538 137.497 104.547 137.505 104.555 137.505C104.591 137.531 104.625 137.559 104.66 137.583L104.713 137.619C104.791 137.671 104.87 137.715 104.94 137.768C105.474 138.117 105.998 138.494 106.513 138.878C106.61 138.94 106.698 139.009 106.785 139.079H106.803C107.239 139.412 107.676 139.744 108.105 140.093L108.175 140.146L108.237 140.19V140.198C108.393 140.322 108.542 140.444 108.691 140.575C109.049 140.873 109.408 141.178 109.758 141.493C110.029 141.729 110.291 141.964 110.553 142.21C110.772 142.402 110.982 142.603 111.183 142.795C111.392 143.005 111.602 143.207 111.804 143.407C112.328 143.931 112.844 144.464 113.343 145.016C113.841 145.567 114.331 146.125 114.811 146.694C121.447 154.711 125.435 164.993 125.435 176.229Z" fill="#CAD3E1"/>
</g>
<mask id="mask2_29_33" style="mask-type:luminance" maskUnits="userSpaceOnUse" x="0" y="0" width="160" height="161">
<path d="M0 80.0016C0 124.183 35.8167 160.001 79.9995 160.001C124.182 160.001 160 124.183 160 80.0016C160 35.8167 124.182 0 79.9995 0C35.8167 0 0 35.8167 0 80.0016Z" fill="white"/>
</mask>
<g mask="url(#mask2_29_33)">
<path d="M108.237 140.19V176.229H49.9456V140.129C49.9638 140.111 49.9895 140.093 50.0077 140.075C50.0249 140.058 50.0506 140.049 50.0688 140.031C50.5061 139.683 50.9337 139.35 51.3796 139.018C51.5199 138.912 51.6593 138.808 51.7997 138.703C51.939 138.606 52.0794 138.51 52.2198 138.406L52.7182 138.066C53.0065 137.864 53.2948 137.672 53.5916 137.479C53.7578 137.367 53.9153 137.261 54.0814 137.156C54.5444 136.859 55.0085 136.571 55.4801 136.291C55.9527 136.01 56.4339 135.739 56.9141 135.476C56.9323 135.459 56.9494 135.468 56.9494 135.468V135.459C57.2206 135.31 57.4917 135.153 57.7543 134.995C57.8583 134.942 57.9547 134.881 58.0597 134.82C58.243 134.714 58.4274 134.593 58.6021 134.48C58.7853 134.366 58.96 134.244 59.1347 134.13C59.467 133.912 59.7992 133.684 60.1143 133.439C60.1411 133.429 60.1582 133.413 60.184 133.395C60.2718 133.325 60.3597 133.264 60.4551 133.193C60.5248 133.132 60.6041 133.07 60.6823 133.009C60.7702 132.948 60.8484 132.878 60.9363 132.809C61.0242 132.747 61.1024 132.677 61.1807 132.615L61.1892 132.624L61.1989 132.634C63.2792 134.757 65.727 136.516 68.4471 137.784C70.7192 138.867 73.1939 139.601 75.7907 139.934C75.9483 139.969 76.1144 139.986 76.2805 140.006C76.8925 140.074 77.513 140.118 78.1432 140.136H78.1518C78.4401 140.153 78.7198 140.162 79.0167 140.162H79.096C79.3843 140.162 79.664 140.152 79.9437 140.136H79.9523C80.5825 140.128 81.1945 140.084 81.8064 140.014H81.815C81.9897 139.997 82.1558 139.979 82.3219 139.943C84.9102 139.62 87.3752 138.886 89.6484 137.819C92.3942 136.543 94.8689 134.776 96.9663 132.644L96.9759 132.635C97.037 132.696 97.1067 132.748 97.1678 132.792C97.2289 132.844 97.2996 132.898 97.3693 132.949C97.395 132.975 97.4304 132.993 97.4561 133.019C97.6136 133.141 97.7712 133.264 97.9373 133.386C98.2524 133.622 98.5761 133.858 98.9072 134.077C98.978 134.129 99.0391 134.172 99.1087 134.216L99.397 134.399C99.5203 134.487 99.6425 134.565 99.7732 134.637C99.8697 134.706 99.9747 134.767 100.07 134.829C100.21 134.917 100.351 134.995 100.49 135.073C100.709 135.204 100.936 135.335 101.163 135.458C101.224 135.475 101.268 135.511 101.321 135.536C101.706 135.745 102.09 135.974 102.467 136.191C102.851 136.418 103.218 136.647 103.594 136.882C103.777 136.987 103.953 137.101 104.128 137.215C104.258 137.303 104.389 137.389 104.521 137.486C104.538 137.495 104.547 137.505 104.555 137.505C104.591 137.53 104.626 137.557 104.66 137.582L104.713 137.618C104.792 137.67 104.87 137.713 104.94 137.767C105.474 138.116 105.999 138.492 106.514 138.876C106.611 138.938 106.698 139.008 106.787 139.077H106.804C107.241 139.41 107.678 139.742 108.107 140.091L108.177 140.144L108.237 140.19Z" fill="#168EF7"/>
</g>
<mask id="mask3_29_33" style="mask-type:luminance" maskUnits="userSpaceOnUse" x="0" y="0" width="160" height="161">
<path d="M0 80.0016C0 124.183 35.8167 160.001 79.9995 160.001C124.182 160.001 160 124.183 160 80.0016C160 35.8167 124.182 0 79.9995 0C35.8167 0 0 35.8167 0 80.0016Z" fill="white"/>
</mask>
<g mask="url(#mask3_29_33)">
<path d="M114.654 50.4053V76.9943C114.654 77.3265 114.646 77.6577 114.637 77.991V78.1475C114.629 78.5933 114.593 79.0392 114.568 79.485C114.558 79.6351 114.549 79.7916 114.541 79.9405C114.541 79.9845 114.532 80.037 114.532 80.0895C114.515 80.2385 114.515 80.3778 114.505 80.5268C114.488 80.7626 114.471 80.9973 114.436 81.2352C114.436 81.2684 114.436 81.3038 114.427 81.3402C114.427 81.3745 114.419 81.4185 114.41 81.4528C114.401 81.5664 114.392 81.681 114.375 81.7861C114.366 81.8729 114.358 81.9608 114.339 82.0562C114.339 82.1001 114.331 82.144 114.322 82.1966C114.261 82.7206 114.191 83.2372 114.104 83.7613C114.078 83.9189 114.051 84.0764 114.025 84.234C114.007 84.3819 113.981 84.5298 113.955 84.6798C113.955 84.6884 113.955 84.6884 113.946 84.6969C113.876 85.056 113.815 85.4139 113.736 85.7633C113.727 85.8426 113.71 85.9123 113.693 85.982C113.675 86.0516 113.666 86.1224 113.649 86.1835C113.641 86.2274 113.632 86.2713 113.622 86.3056C113.622 86.3249 113.614 86.341 113.614 86.3496C113.57 86.5243 113.535 86.699 113.492 86.8737C113.492 86.909 113.483 86.9433 113.466 86.9787C113.466 87.0055 113.456 87.0312 113.448 87.0666C113.448 87.0923 113.439 87.1191 113.43 87.1362C113.404 87.3013 113.352 87.476 113.317 87.6432C113.308 87.6528 113.308 87.6528 113.308 87.6614C113.273 87.8189 113.229 87.9861 113.176 88.1415C113.168 88.1501 113.168 88.1501 113.168 88.1608C112.993 88.8671 112.783 89.568 112.565 90.2593C112.556 90.2679 112.556 90.2679 112.556 90.2765C112.451 90.6087 112.346 90.9324 112.232 91.2646C112.224 91.2989 112.207 91.3343 112.198 91.3696C112.093 91.6665 111.988 91.9645 111.883 92.2613C111.848 92.3481 111.813 92.436 111.778 92.5336C111.673 92.8133 111.568 93.0919 111.454 93.3717C111.323 93.7125 111.183 94.0447 111.044 94.377C110.922 94.6728 110.79 94.9718 110.659 95.2687C110.642 95.3212 110.615 95.3651 110.598 95.4176C110.449 95.7317 110.31 96.0467 110.161 96.3533C110.012 96.6759 109.854 97.0006 109.688 97.3232C109.374 97.962 109.033 98.5986 108.691 99.2202L108.22 100.06C106.874 102.376 105.378 104.554 103.752 106.565C103.533 106.852 103.306 107.132 103.07 107.404C102.746 107.796 102.414 108.182 102.082 108.557C101.785 108.891 101.487 109.222 101.181 109.546C100.971 109.774 100.761 109.991 100.551 110.21C99.9136 110.866 99.2663 111.495 98.62 112.091C98.4442 112.264 98.261 112.423 98.0777 112.589C97.7798 112.86 97.4829 113.122 97.1764 113.375C96.9406 113.585 96.6962 113.785 96.4508 113.987C95.8217 114.502 95.1926 115.001 94.5538 115.465C94.2912 115.666 94.0211 115.858 93.75 116.041C93.3127 116.356 92.8669 116.653 92.421 116.942C92.1756 117.108 91.9227 117.265 91.6687 117.414C90.777 117.965 89.8767 118.471 88.985 118.908C88.7664 119.023 88.5477 119.127 88.3291 119.232C88.1105 119.338 87.8833 119.441 87.6464 119.546C87.3581 119.678 87.0698 119.8 86.7815 119.915C86.6679 119.967 86.5543 120.011 86.4407 120.045C86.0999 120.186 85.7494 120.316 85.4086 120.429C84.9799 120.587 84.5426 120.719 84.115 120.841C83.817 120.927 83.5116 121.007 83.2136 121.077C83.1965 121.086 83.1794 121.095 83.1526 121.095C82.8557 121.165 82.5588 121.235 82.2609 121.287C82.1826 121.306 82.1033 121.322 82.0251 121.331C81.7807 121.374 81.5353 121.418 81.2909 121.445C80.9405 121.498 80.5911 121.54 80.2417 121.559C80.1185 121.576 80.0059 121.583 79.8827 121.583C79.6029 121.601 79.3232 121.61 79.0521 121.61H79.0178C78.7466 121.61 78.484 121.6 78.2129 121.583C78.1078 121.583 78.0028 121.575 77.8978 121.559C77.6534 121.549 77.3994 121.523 77.1379 121.488C77.0854 121.488 77.0243 121.479 76.9718 121.471C76.6481 121.427 76.3245 121.373 75.9922 121.313C75.7125 121.269 75.4328 121.208 75.1445 121.138C73.6494 120.799 72.1104 120.282 70.5542 119.591C69.2252 119.006 67.878 118.297 66.5405 117.475C65.8674 117.065 65.1944 116.627 64.5299 116.163C64.1976 115.927 63.8654 115.692 63.5332 115.446C62.4925 114.687 61.4615 113.856 60.4465 112.964C60.1668 112.71 59.8871 112.456 59.6074 112.195C59.3276 111.941 59.0479 111.678 58.7768 111.425C58.0951 110.769 57.4306 110.088 56.7833 109.379C56.5304 109.108 56.2764 108.827 56.0224 108.54C55.3236 107.752 54.642 106.94 53.9946 106.091C53.7406 105.786 53.5048 105.471 53.269 105.157C52.3859 103.984 51.5468 102.761 50.759 101.492C50.55 101.153 50.34 100.803 50.1385 100.461C49.8941 100.05 49.6583 99.6317 49.4215 99.2105C48.548 97.6372 47.7431 96.0017 47.0433 94.3148C46.9382 94.0694 46.8343 93.825 46.7464 93.5807C46.6071 93.2656 46.4838 92.9419 46.3702 92.6268C46.1955 92.1627 46.0294 91.7008 45.8719 91.2367C45.7143 90.7727 45.5664 90.3011 45.4174 89.8295C45.2781 89.3751 45.1463 88.9196 45.0241 88.4566C44.8837 87.9765 44.7615 87.4878 44.6479 86.9883C44.6393 86.9787 44.6393 86.9701 44.6393 86.9626C44.6308 86.9101 44.6126 86.8565 44.604 86.8051C44.4379 86.1074 44.29 85.3989 44.1581 84.6819C43.9834 83.7377 43.8441 82.7753 43.7391 81.8043C43.6951 81.4978 43.6683 81.1934 43.6426 80.8869C43.6073 80.5621 43.5815 80.2481 43.5633 79.9245C43.5204 79.3382 43.4936 78.7445 43.4765 78.1496C43.4679 77.7735 43.4594 77.4069 43.4594 77.0307V50.4053C43.4594 48.3862 43.6255 46.4109 43.9481 44.4872C45.8022 33.4439 52.7353 24.124 62.2653 19.0085C64.9672 17.5574 67.8877 16.447 70.9561 15.73C70.9732 15.7215 70.9914 15.7215 71.0086 15.7215C71.5241 15.6068 72.0407 15.4932 72.5648 15.3967L72.6955 15.371C73.1767 15.2928 73.658 15.2145 74.1477 15.1438C74.4093 15.1095 74.6804 15.0741 74.943 15.0473C75.2056 15.013 75.4681 14.9863 75.7211 14.9595H75.8004C76.0533 14.9348 76.3073 14.9155 76.5602 14.8984C76.8228 14.8812 77.0854 14.863 77.3469 14.8459C77.8892 14.8287 78.4401 14.8105 78.991 14.8105H79.0521C80.7401 14.8105 82.3927 14.9337 84.0185 15.1609C85.0067 15.2917 85.9852 15.4664 86.9476 15.685C89.2647 16.2091 91.494 16.9604 93.6096 17.9143C96.4947 19.2089 99.1795 20.8701 101.592 22.8539C103.621 24.5152 105.465 26.3853 107.074 28.4506C110.65 33.0055 113.134 38.4425 114.147 44.3875C114.48 46.3488 114.654 48.3508 114.654 50.4053Z" fill="#ECC19C"/>
</g>
<mask id="mask4_29_33" style="mask-type:luminance" maskUnits="userSpaceOnUse" x="0" y="0" width="160" height="161">
<path d="M0 80.0016C0 124.183 35.8167 160.001 79.9995 160.001C124.182 160.001 160 124.183 160 80.0016C160 35.8167 124.182 0 79.9995 0C35.8167 0 0 35.8167 0 80.0016Z" fill="white"/>
</mask>
<g mask="url(#mask4_29_33)">
<path d="M72.6527 67.3947V67.385C70.9647 63.083 66.7677 60.0403 61.872 60.0403C55.4811 60.0403 50.296 65.2169 50.296 71.6077C50.296 78.0071 55.4811 83.1836 61.872 83.1836C68.2628 83.1836 73.4393 78.0168 73.4479 71.6249V71.6077C73.4479 70.1223 73.1682 68.6968 72.6527 67.3947ZM61.872 81.3038C56.5389 81.3038 52.1844 76.9493 52.1844 71.6077C52.1844 66.2736 56.5389 61.9202 61.872 61.9202C66.7763 61.9202 70.851 65.592 71.4802 70.3313V70.3495C71.507 70.5585 71.5241 70.7696 71.5423 70.9797C71.5595 71.1983 71.568 71.4159 71.568 71.6259C71.5509 76.9589 67.1964 81.3038 61.872 81.3038Z" fill="#1A1A1A"/>
</g>
<mask id="mask5_29_33" style="mask-type:luminance" maskUnits="userSpaceOnUse" x="0" y="0" width="160" height="161">
<path d="M0 80.0016C0 124.183 35.8167 160.001 79.9995 160.001C124.182 160.001 160 124.183 160 80.0016C160 35.8167 124.182 0 79.9995 0C35.8167 0 0 35.8167 0 80.0016Z" fill="white"/>
</mask>
<g mask="url(#mask5_29_33)">
<path d="M96.1539 60.0403C91.2485 60.0403 87.0526 63.0916 85.3914 67.4022V67.4107C85.3818 67.4107 85.3818 67.4107 85.3818 67.4193C84.8748 68.7226 84.5865 70.1298 84.5865 71.6077V71.6249C84.5951 78.0168 89.7717 83.1836 96.1539 83.1836C102.554 83.1836 107.73 78.0071 107.73 71.6077C107.729 65.2169 102.554 60.0403 96.1539 60.0403ZM96.1539 81.3038C90.8295 81.3038 86.4835 76.9579 86.4664 71.6249V71.6077L86.5457 70.4009C86.5457 70.3656 86.5543 70.3388 86.5628 70.3045V70.2959C87.192 65.5759 91.2582 61.9213 96.1539 61.9213C101.495 61.9213 105.85 66.2758 105.85 71.6088C105.85 76.9504 101.495 81.3038 96.1539 81.3038Z" fill="#1A1A1A"/>
</g>
<mask id="mask6_29_33" style="mask-type:luminance" maskUnits="userSpaceOnUse" x="0" y="0" width="160" height="161">
<path d="M0 80.0016C0 124.183 35.8167 160.001 79.9995 160.001C124.182 160.001 160 124.183 160 80.0016C160 35.8167 124.182 0 79.9995 0C35.8167 0 0 35.8167 0 80.0016Z" fill="white"/>
</mask>
<g mask="url(#mask6_29_33)">
<path d="M86.5618 70.3023C86.5521 70.3388 86.5425 70.3666 86.5425 70.4063L86.4674 71.6109V71.6302H84.5844V71.6109C84.5747 68.5414 82.0894 66.055 79.0188 66.055C75.9493 66.055 73.4447 68.55 73.4447 71.6291H71.5616C71.5616 71.1972 71.5337 70.7632 71.4769 70.3495C71.6559 69.2659 72.061 68.2681 72.6537 67.3915C74.0288 65.3294 76.3641 63.9747 79.0188 63.9747C81.6746 63.9747 84.0292 65.3391 85.385 67.4022C85.3946 67.4118 85.3946 67.4204 85.4032 67.429C85.968 68.2767 86.3731 69.2563 86.5618 70.3023Z" fill="#1A1A1A"/>
</g>
<mask id="mask7_29_33" style="mask-type:luminance" maskUnits="userSpaceOnUse" x="0" y="0" width="160" height="161">
<path d="M0 80.0016C0 124.183 35.8167 160.001 79.9995 160.001C124.182 160.001 160 124.183 160 80.0016C160 35.8167 124.182 0 79.9995 0C35.8167 0 0 35.8167 0 80.0016Z" fill="white"/>
</mask>
<g mask="url(#mask7_29_33)">
<path d="M79.0521 134.462L79.0264 134.506L79.0167 134.525L78.4133 135.53V135.538L76.1584 139.325L75.7908 139.937L75.048 141.178L74.794 141.614C73.8241 143.25 72.1361 144.081 70.4578 144.081C68.9187 144.081 67.3711 143.389 66.3573 141.983L60.184 133.396L60.1754 133.387C60.3415 133.264 60.5162 133.142 60.6824 133.011C60.7702 132.949 60.8485 132.879 60.9364 132.81C61.0146 132.741 61.1025 132.67 61.1807 132.609V132.618L61.1904 132.626H61.1989C61.5837 132.32 61.9502 132.015 62.3178 131.682C62.3436 131.664 62.3789 131.638 62.4047 131.603C62.7637 131.289 63.1216 130.957 63.4721 130.616C63.7079 130.379 63.9523 130.143 64.1795 129.899C65.1419 128.893 66.025 127.818 66.8288 126.68L79.0167 134.436L79.0264 134.445L79.0521 134.462Z" fill="#E7ECF2"/>
</g>
<mask id="mask8_29_33" style="mask-type:luminance" maskUnits="userSpaceOnUse" x="0" y="0" width="160" height="161">
<path d="M0 80.0016C0 124.183 35.8167 160.001 79.9995 160.001C124.182 160.001 160 124.183 160 80.0016C160 35.8167 124.182 0 79.9995 0C35.8167 0 0 35.8167 0 80.0016Z" fill="white"/>
</mask>
<g mask="url(#mask8_29_33)">
<path d="M97.9352 133.387L91.7544 141.978C89.6313 144.928 85.1792 144.737 83.3165 141.615L79.0853 134.525L79.0499 134.462L91.3257 126.646C92.9162 128.901 94.8142 130.912 96.9642 132.635C97.2878 132.898 97.6126 133.151 97.9352 133.387Z" fill="#E7ECF2"/>
</g>
<mask id="mask9_29_33" style="mask-type:luminance" maskUnits="userSpaceOnUse" x="0" y="0" width="160" height="161">
<path d="M0 80.0016C0 124.183 35.8167 160.001 79.9995 160.001C124.182 160.001 160 124.183 160 80.0016C160 35.8167 124.182 0 79.9995 0C35.8167 0 0 35.8167 0 80.0016Z" fill="white"/>
</mask>
<g mask="url(#mask9_29_33)">
<path d="M78.4165 140.046L70.7567 142.623C69.6228 143.003 68.4503 142.16 68.4503 140.965V134.609C68.4503 133.414 69.6228 132.572 70.7567 132.952L78.4165 135.528V140.046Z" fill="#2B385D"/>
</g>
<mask id="mask10_29_33" style="mask-type:luminance" maskUnits="userSpaceOnUse" x="0" y="0" width="160" height="161">
<path d="M0 80.0016C0 124.183 35.8167 160.001 79.9995 160.001C124.182 160.001 160 124.183 160 80.0016C160 35.8167 124.182 0 79.9995 0C35.8167 0 0 35.8167 0 80.0016Z" fill="white"/>
</mask>
<g mask="url(#mask10_29_33)">
<path d="M79.6843 140.046L87.3441 142.623C88.478 143.003 89.6505 142.16 89.6505 140.965V134.609C89.6505 133.414 88.478 132.572 87.3441 132.952L79.6843 135.528V140.046Z" fill="#2B385D"/>
</g>
<mask id="mask11_29_33" style="mask-type:luminance" maskUnits="userSpaceOnUse" x="0" y="0" width="160" height="161">
<path d="M0 80.0016C0 124.183 35.8167 160.001 79.9995 160.001C124.182 160.001 160 124.183 160 80.0016C160 35.8167 124.182 0 79.9995 0C35.8167 0 0 35.8167 0 80.0016Z" fill="white"/>
</mask>
<g mask="url(#mask11_29_33)">
<path d="M79.7947 141.113H78.305C77.1218 141.113 76.1615 140.153 76.1615 138.969V136.606C76.1615 135.423 77.1218 134.462 78.305 134.462H79.7947C80.979 134.462 81.9382 135.423 81.9382 136.606V138.969C81.9382 140.153 80.979 141.113 79.7947 141.113Z" fill="#2B385D"/>
</g>
<mask id="mask12_29_33" style="mask-type:luminance" maskUnits="userSpaceOnUse" x="0" y="0" width="160" height="161">
<path d="M0 80.0016C0 124.183 35.8167 160.001 79.9995 160.001C124.182 160.001 160 124.183 160 80.0016C160 35.8167 124.182 0 79.9995 0C35.8167 0 0 35.8167 0 80.0016Z" fill="white"/>
</mask>
<g mask="url(#mask12_29_33)">
<path d="M75.3834 101.028C72.4694 102.715 69.1887 103.215 66.1 102.665C67.1621 99.7132 69.2284 97.1174 72.1436 95.4305C75.0576 93.7436 78.3383 93.2441 81.4163 93.7993C80.3649 96.7455 78.2986 99.3402 75.3834 101.028Z" fill="#543E36"/>
</g>
<mask id="mask13_29_33" style="mask-type:luminance" maskUnits="userSpaceOnUse" x="0" y="0" width="160" height="161">
<path d="M0 80.0016C0 124.183 35.8167 160.001 79.9995 160.001C124.182 160.001 160 124.183 160 80.0016C160 35.8167 124.182 0 79.9995 0C35.8167 0 0 35.8167 0 80.0016Z" fill="white"/>
</mask>
<g mask="url(#mask13_29_33)">
<path d="M82.6531 101.028C85.5672 102.715 88.8478 103.215 91.9366 102.665C90.8745 99.7132 88.8081 97.1174 85.893 95.4305C82.9789 93.7436 79.6983 93.2441 76.6202 93.7993C77.6716 96.7455 79.739 99.3402 82.6531 101.028Z" fill="#543E36"/>
</g>
<mask id="mask14_29_33" style="mask-type:luminance" maskUnits="userSpaceOnUse" x="0" y="0" width="160" height="161">
<path d="M0 80.0016C0 124.183 35.8167 160.001 79.9995 160.001C124.182 160.001 160 124.183 160 80.0016C160 35.8167 124.182 0 79.9995 0C35.8167 0 0 35.8167 0 80.0016Z" fill="white"/>
</mask>
<g mask="url(#mask14_29_33)">
<path d="M107.039 28.4517C105.299 32.3946 103.034 36.0589 100.358 39.3803C100.202 39.5732 100.044 39.765 99.8782 39.9579C94.4133 46.5417 87.2444 51.6646 79.052 54.6634C79.0338 54.672 79.0081 54.6827 78.9909 54.6902C76.8313 55.4854 74.601 56.1327 72.3107 56.6129C70.7803 56.9366 69.2241 57.1906 67.6422 57.3738C65.8234 57.5753 63.9693 57.6803 62.0905 57.6803C59.9395 57.6803 57.8325 57.5399 55.7597 57.2677C53.732 57.0159 51.7471 56.6386 49.8062 56.1327C48.8266 55.8873 47.8738 55.6076 46.9296 55.2936C46.7978 55.2582 46.667 55.2143 46.5363 55.1703C45.487 54.822 44.4721 54.4447 43.4582 54.0353C43.4496 54.0268 43.4325 54.0268 43.4229 54.0182V51.1223V50.4053C43.4229 39.7093 48.1546 30.1257 55.63 23.6063C55.6375 23.5999 55.6451 23.5924 55.6526 23.587C56.1188 23.1808 56.5957 22.7864 57.0833 22.4049C57.1777 22.3309 57.273 22.2591 57.3673 22.1862C57.8057 21.8497 58.2483 21.5207 58.7017 21.2045C58.8785 21.0813 59.0607 20.9634 59.2397 20.8444C59.6352 20.5797 60.0296 20.3128 60.4358 20.0642C61.0349 19.6955 61.6436 19.3429 62.2652 19.0107C64.966 17.5499 67.8865 16.4395 70.955 15.73C70.9732 15.7215 70.9903 15.7215 71.0075 15.7215C71.524 15.5993 72.0396 15.4943 72.5647 15.3978L72.6955 15.3721C73.1767 15.2842 73.6568 15.2156 74.1466 15.1449C74.4092 15.1095 74.6803 15.0752 74.9429 15.0484C75.2044 15.013 75.467 14.9873 75.721 14.9605H75.7992C76.0533 14.9348 76.3062 14.9177 76.5602 14.8994C76.8217 14.8812 77.0843 14.8651 77.3469 14.8469C77.8892 14.8287 78.44 14.8126 78.9909 14.8126H79.052C80.7389 14.8126 82.3916 14.9337 84.0174 15.162C84.997 15.2928 85.9583 15.4771 86.9122 15.6861C89.2293 16.2102 91.4585 16.9625 93.5742 17.9153C96.4593 19.2089 99.143 20.8701 101.557 22.855C103.585 24.5173 105.43 26.3886 107.039 28.4517Z" fill="#543E36"/>
</g>
<mask id="mask15_29_33" style="mask-type:luminance" maskUnits="userSpaceOnUse" x="0" y="0" width="160" height="161">
<path d="M0 80.0016C0 124.183 35.8167 160.001 79.9995 160.001C124.182 160.001 160 124.183 160 80.0016C160 35.8167 124.182 0 79.9995 0C35.8167 0 0 35.8167 0 80.0016Z" fill="white"/>
</mask>
<g mask="url(#mask15_29_33)">
<path d="M114.617 50.4021V57.4049C108.549 52.7107 103.522 46.7742 99.8932 39.989C99.8846 39.9804 99.8846 39.9633 99.876 39.9537C96.3082 33.2917 94.0961 25.8162 93.572 17.9121C96.4572 19.2068 99.1419 20.8691 101.554 22.8529C103.583 24.5141 105.428 26.3843 107.036 28.4485C111.784 34.4985 114.617 42.1132 114.617 50.4021Z" fill="#543E36"/>
</g>
<mask id="mask16_29_33" style="mask-type:luminance" maskUnits="userSpaceOnUse" x="0" y="0" width="160" height="161">
<path d="M0 80.0016C0 124.183 35.8167 160.001 79.9995 160.001C124.182 160.001 160 124.183 160 80.0016C160 35.8167 124.182 0 79.9995 0C35.8167 0 0 35.8167 0 80.0016Z" fill="white"/>
</mask>
<g mask="url(#mask16_29_33)">
<path d="M114.617 51.1266L110.134 49.9005L110.203 50.3967C110.783 54.5272 111.762 58.2762 112.985 61.5901C113.8 63.8021 114.617 67.4268 114.617 73.0653C114.617 65.3422 114.617 51.1266 114.617 51.1266Z" fill="#543E36"/>
</g>
<mask id="mask17_29_33" style="mask-type:luminance" maskUnits="userSpaceOnUse" x="0" y="0" width="160" height="161">
<path d="M0 80.0016C0 124.183 35.8167 160.001 79.9995 160.001C124.182 160.001 160 124.183 160 80.0016C160 35.8167 124.182 0 79.9995 0C35.8167 0 0 35.8167 0 80.0016Z" fill="white"/>
</mask>
<g mask="url(#mask17_29_33)">
<path d="M47.9006 49.8995L47.8395 50.3978C47.5941 52.0944 47.2887 53.7278 46.9296 55.2925C46.4055 57.5325 45.7668 59.6395 45.0509 61.5879C44.3424 63.5214 43.6254 66.5458 43.4593 71.0483C43.4325 71.687 43.424 72.3611 43.424 73.0674V54.0161V51.1223L43.4593 51.1138L47.9006 49.8995Z" fill="#543E36"/>
</g>
</g>
<defs>
<clipPath id="clip0_29_33">
<rect width="160" height="160" fill="white"/>
</clipPath>
</defs>
</svg>
